<?xml version="1.0" encoding="utf-8"?>
<!-- Generator: Adobe Illustrator 16.0.3, SVG Export Plug-In . SVG Version: 6.00 Build 0)  -->
<!DOCTYPE svg PUBLIC "-//W3C//DTD SVG 1.1//EN" "http://www.w3.org/Graphics/SVG/1.1/DTD/svg11.dtd">
<svg version="1.1" id="Layer_1" xmlns="http://www.w3.org/2000/svg" xmlns:xlink="http://www.w3.org/1999/xlink" x="0px" y="0px"
	 width="40px" height="40px" viewBox="10 10 40 40" enable-background="new 10 10 40 40" xml:space="preserve">
<g>
	<rect x="10" y="10" fill="none" width="40" height="40"/>
	<g>
		<g>
			<path fill="#FFFFFF" d="M29.286,42.728h11.703v-14.63H29.286V42.728z M39.526,40.403h-8.777v-2.322h8.777V40.403z M39.526,36.574
				h-8.777v-2.322h8.777V36.574z M39.526,32.745h-8.777v-2.323h8.777V32.745z"/>
			<path fill="#FFFFFF" d="M19.012,17.273v11.641v2.172v11.642H30.72V31.086v-2.172V17.273H19.012z M29.254,40.403h-8.776v-2.322
				h8.776V40.403z M29.254,36.574h-8.776v-2.322h8.776V36.574z M29.254,32.745h-8.776v-2.323h8.776V32.745z M20.477,18.833h8.777
				v2.322h-8.777V18.833z M20.477,22.664h8.777v2.322h-8.777V22.664z M20.477,26.492h8.777v2.323h-8.777V26.492z"/>
			<path fill="#FFFFFF" d="M37.413,18.727v2.122h2.121v2.122h-2.121v2.121h-2.121v-2.121H33.17v-2.122h2.122v-2.122H37.413z
				 M38.867,17.273h-1.454h-2.121h-1.455v1.454v0.667H33.17h-1.454v1.455v2.122v1.456h1.454h0.667v0.666v1.454h1.455h2.121h1.454
				v-1.454v-0.666h0.667h1.455v-1.456v-2.122v-1.455h-1.455h-0.667v-0.667V17.273z"/>
		</g>
	</g>
</g>
</svg>
