<?xml version="1.0" encoding="utf-8"?>
<!-- Generator: Adobe Illustrator 16.0.3, SVG Export Plug-In . SVG Version: 6.00 Build 0)  -->
<!DOCTYPE svg PUBLIC "-//W3C//DTD SVG 1.1//EN" "http://www.w3.org/Graphics/SVG/1.1/DTD/svg11.dtd">
<svg version="1.1" id="Layer_1" xmlns="http://www.w3.org/2000/svg" xmlns:xlink="http://www.w3.org/1999/xlink" x="0px" y="0px"
	 width="40px" height="40px" viewBox="10 10 40 40" enable-background="new 10 10 40 40" xml:space="preserve">
<g>
	<rect x="10" y="10" fill="none" width="40" height="40"/>
	<g>
		<g>
			<polygon fill="#FFFFFF" points="16.363,36.114 16.363,38.149 21.941,38.149 24.149,40.181 35.852,40.181 38.056,38.149 
				43.637,38.149 43.637,36.114 			"/>
			<g>
				<path fill="#FFFFFF" d="M21.941,29.847h0.02c0.212,4.371,3.724,7.85,8.039,7.85c3.273,0,6.079-2.004,7.337-4.878
					c0.234,0.035,0.475,0.059,0.719,0.059c2.738,0,4.96-2.276,4.96-5.085c0-2.809-2.222-5.084-4.96-5.084V22h-4.558H26.5h-4.559
					v7.423c0,0.003,0,0.007,0,0.01c0,0.005,0,0.007,0,0.01V29.847z M38.204,24.931c1.541,0,2.791,1.282,2.791,2.862
					c0,1.58-1.25,2.861-2.791,2.861c-0.082,0-0.162-0.008-0.243-0.013c0.036-0.26,0.063-0.526,0.077-0.792h0.018v-4.911
					C38.105,24.935,38.155,24.931,38.204,24.931"/>
			</g>
		</g>
	</g>
</g>
</svg>
