<?xml version="1.0" encoding="utf-8"?>
<!-- Generator: Adobe Illustrator 16.0.3, SVG Export Plug-In . SVG Version: 6.00 Build 0)  -->
<!DOCTYPE svg PUBLIC "-//W3C//DTD SVG 1.1//EN" "http://www.w3.org/Graphics/SVG/1.1/DTD/svg11.dtd">
<svg version="1.1" id="Layer_1" xmlns="http://www.w3.org/2000/svg" xmlns:xlink="http://www.w3.org/1999/xlink" x="0px" y="0px"
	 width="40px" height="40px" viewBox="10 10 40 40" enable-background="new 10 10 40 40" xml:space="preserve">
<g>
	<rect x="10" y="10" fill="none" width="40" height="40"/>
	<g>
		<g>
			<rect x="15.455" y="21.873" fill="#FFFFFF" width="1.711" height="20.535"/>
			<rect x="18.021" y="32.025" fill="#FFFFFF" width="7.701" height="7.7"/>
			<rect x="26.578" y="32.025" fill="#FFFFFF" width="15.402" height="7.7"/>
			<rect x="42.834" y="25.294" fill="#FFFFFF" width="1.712" height="17.112"/>
			<g>
				<path fill="#FFFFFF" d="M21.872,28.602c-2.126,0-3.85,0.768-3.85,1.711v0.854h7.701v-0.854
					C25.722,29.37,23.998,28.602,21.872,28.602"/>
				<path fill="#FFFFFF" d="M31.711,17.594v2.566h2.566v2.568h-2.566v2.567h-2.567v-2.567h-2.568V20.16h2.568v-2.567L31.711,17.594
					L31.711,17.594z M33.165,16.139h-1.454h-2.567h-1.455v1.455v1.112h-1.114h-1.454v1.455v2.568v1.455h1.454h1.114v1.112v1.455
					h1.455h2.567h1.454v-1.455v-1.112h1.112h1.454v-1.455V20.16v-1.455h-1.454h-1.112v-1.112V16.139z"/>
			</g>
		</g>
	</g>
</g>
</svg>
