<?xml version="1.0" encoding="utf-8"?>
<!-- Generator: Adobe Illustrator 16.0.3, SVG Export Plug-In . SVG Version: 6.00 Build 0)  -->
<!DOCTYPE svg PUBLIC "-//W3C//DTD SVG 1.1//EN" "http://www.w3.org/Graphics/SVG/1.1/DTD/svg11.dtd">
<svg version="1.1" id="Layer_1" xmlns="http://www.w3.org/2000/svg" xmlns:xlink="http://www.w3.org/1999/xlink" x="0px" y="0px"
	 width="40px" height="40px" viewBox="10 10 40 40" enable-background="new 10 10 40 40" xml:space="preserve">
<g>
	<rect x="10" y="10" fill="none" width="40" height="40"/>
	<g>
		<g>
			<g>
				<g>
					<g>
						<path fill="#FFFFFF" d="M42.179,41.344c-3.383,2.634-6.983,4.132-10.804,4.491c-4.129,0.379-8.415-0.583-12.86-2.884
							l-0.184-3.189c3.101,2.933,6.882,4.604,11.343,5.007C34.383,45.207,38.55,44.066,42.179,41.344z M23.107,28.695
							c2.122-0.363,4.273-0.146,6.456,0.652c2.184,0.795,4.153,2.115,5.909,3.958c1.854,1.96,3.264,4.314,4.231,7.063
							c-2.628,1.379-5.297,2.131-8.013,2.254c-2.529,0.105-4.871-0.303-7.022-1.225c-2.126-0.897-3.834-2.206-5.125-3.928
							c-1.291-1.721-1.977-3.681-2.056-5.876l6.074,2.399l3.479,4.623l-3.043-4.453l8.09,3.203l-4.73-1.99l4.361-0.356l-4.993,0.106
							l-2.951-1.238l-0.04-0.027l-0.014,0.015l-6.139-2.583C19.143,29.924,20.986,29.058,23.107,28.695z M35.591,17.338
							c-1.115-0.044-2.192-0.014-3.229,0.092c-0.624,0.053-1.238,0.126-1.844,0.225c-5.837,0.806-10.108,3.806-12.814,8.999
							c2.638-5.698,6.654-9.347,12.049-10.949l2.939-0.844c0.887-0.183,1.795-0.311,2.727-0.381c0.21,0.976,0.365,1.928,0.46,2.859
							l0.015,0.013h-0.015C35.784,17.351,35.688,17.347,35.591,17.338z M18.317,28.576c0.334-1.229,0.891-2.376,1.674-3.439
							c1.168-1.621,2.709-2.898,4.624-3.834c0.131-0.062,0.263-0.124,0.396-0.185c2.143-0.982,4.484-1.435,7.023-1.355
							c2.696,0.087,5.352,0.75,7.97,1.989c-0.316,1.025-0.694,1.995-1.133,2.912c-0.774,1.623-1.741,3.071-2.899,4.347
							c-0.034,0.035-0.074,0.074-0.117,0.119c2.529,2.197,4.892,5.643,7.087,10.342c-3.426-6.902-7.658-11.014-12.7-12.332
							c-0.237-0.07-0.479-0.123-0.725-0.159l-0.276-0.065c-0.308-0.044-0.615-0.083-0.922-0.119l0.026-0.159l5.375-2.372
							c0-0.008-0.004-0.013-0.013-0.013l-5.218,2.147l2.18-3.643l-2.747,4.025C24.282,26.421,21.082,27.019,18.317,28.576z"/>
					</g>
				</g>
			</g>
		</g>
	</g>
</g>
</svg>
