<?xml version="1.0" encoding="utf-8"?>
<!-- Generator: Adobe Illustrator 16.0.3, SVG Export Plug-In . SVG Version: 6.00 Build 0)  -->
<!DOCTYPE svg PUBLIC "-//W3C//DTD SVG 1.1//EN" "http://www.w3.org/Graphics/SVG/1.1/DTD/svg11.dtd">
<svg version="1.1" id="Layer_1" xmlns="http://www.w3.org/2000/svg" xmlns:xlink="http://www.w3.org/1999/xlink" x="0px" y="0px"
	 width="40px" height="40px" viewBox="10 10 40 40" enable-background="new 10 10 40 40" xml:space="preserve">
<g>
	<rect x="10" y="10" fill="none" width="40" height="40"/>
	<g>
		<g>
			<path fill="#FFFFFF" d="M30.594,17.164v1.188h1.188v1.188h-1.188v1.186h-1.187V19.54h-1.188v-1.188h1.188v-1.188H30.594z
				 M31.32,16.437h-0.727h-1.188h-0.727v0.728v0.46h-0.46h-0.728v0.728v1.188v0.728h0.728h0.46v0.458v0.728h0.727h1.188h0.727
				v-0.728v-0.458h0.46h0.728V19.54v-1.188v-0.728H31.78h-0.46v-0.46V16.437z"/>
			<path fill="#FFFFFF" d="M35.803,15.455H24.198v7.012h11.605V15.455L35.803,15.455z M34.862,21.41h-9.726v-4.928h9.726V21.41z"/>
			<rect x="33.331" y="41.466" fill="#FFFFFF" width="5.074" height="1.29"/>
			<g>
				<path fill="#FFFFFF" d="M34.527,23.17c0.181,0.629,0.284,1.305,0.284,2.011c0,3.301-2.158,5.986-4.812,5.986
					c-2.653,0-4.812-2.684-4.812-5.986c0-0.706,0.105-1.381,0.286-2.011h-1.096c-0.157,0.638-0.245,1.312-0.245,2.011
					c0,3.888,2.627,7.042,5.867,7.042c3.24,0,5.869-3.154,5.869-7.042c0-0.699-0.088-1.373-0.246-2.011H34.527z"/>
				<path fill="#FFFFFF" d="M41.971,38.443c-0.101-1.087-0.126-2.548-1.691-3.855c-1.337-1.118-5.841-2.089-6.954-2.315
					c-0.978,0.685-2.111,1.079-3.325,1.079c-1.213,0-2.349-0.395-3.326-1.079c-1.114,0.227-5.618,1.197-6.954,2.315
					c-1.565,1.308-1.59,2.769-1.691,3.855c-0.142,1.518-0.352,6.103-0.352,6.103H30h12.321
					C42.321,44.546,42.112,39.961,41.971,38.443 M18.786,43.489c0.071-1.45,0.2-3.928,0.294-4.949l0.02-0.224
					c0.083-0.973,0.172-1.979,1.296-2.919c0.599-0.5,2.256-1.053,3.925-1.495c-0.552,0.532-0.894,0.973-0.894,0.973l2.11,1.792
					l-1.302,1.512c0,0,0.003,0.001,4.808,5.311H18.786L18.786,43.489z M30,43.489h-0.551c-1.292-2.801-2.239-6.902-2.449-9.822
					c0.018-0.004,1.583,0.705,3,0.705c1.532,0,3.004-0.739,3.014-0.854c-0.211,2.919-1.172,7.17-2.463,9.971H30L30,43.489z
					 M30.956,43.489c4.807-5.311,4.809-5.313,4.809-5.313l-1.303-1.51l2.109-1.792c0,0-0.341-0.441-0.893-0.973
					c1.668,0.442,3.325,0.993,3.924,1.495c1.126,0.939,1.214,1.945,1.297,2.919l0.02,0.224c0.096,1.02,0.225,3.499,0.295,4.948
					L30.956,43.489L30.956,43.489z"/>
			</g>
		</g>
	</g>
</g>
</svg>
