<?xml version="1.0" encoding="utf-8"?>
<!-- Generator: Adobe Illustrator 16.0.3, SVG Export Plug-In . SVG Version: 6.00 Build 0)  -->
<!DOCTYPE svg PUBLIC "-//W3C//DTD SVG 1.1//EN" "http://www.w3.org/Graphics/SVG/1.1/DTD/svg11.dtd">
<svg version="1.1" id="Layer_1" xmlns="http://www.w3.org/2000/svg" xmlns:xlink="http://www.w3.org/1999/xlink" x="0px" y="0px"
	 width="40px" height="40px" viewBox="10 10 40 40" enable-background="new 10 10 40 40" xml:space="preserve">
<g>
	<rect x="10" y="10" fill="none" width="40" height="40"/>
	<g>
		<g>
			<g>
				<path fill="#FFFFFF" d="M29.611,33.379v0.011h5.492v-1.801h-1.964c0.608-0.783,0.973-1.72,0.973-2.795
					c0-2.533-2.015-4.586-4.5-4.586c-2.485,0-4.499,2.053-4.499,4.586C25.113,31.324,27.126,33.379,29.611,33.379 M29.612,25.939
					c1.544,0,2.799,1.278,2.799,2.853c0,1.512-1.154,2.75-2.613,2.847h-0.187v0.008c-1.545,0-2.797-1.279-2.797-2.854
					S28.067,25.939,29.612,25.939"/>
				<path fill="#FFFFFF" d="M24.462,28.792c0-2.532-2.015-4.586-4.499-4.586c-2.485,0-4.499,2.054-4.5,4.585l-0.009,7.026h1.715
					v-3.43c0.768,0.62,1.738,0.991,2.792,0.991C22.447,33.38,24.462,31.324,24.462,28.792 M17.17,28.792h-0.006
					c0-1.575,1.254-2.852,2.799-2.852s2.799,1.278,2.799,2.854s-1.254,2.854-2.799,2.854C18.416,31.647,17.17,30.357,17.17,28.792"
					/>
				<path fill="#FFFFFF" d="M40.597,27.973c-1.494,0.046-2.876,0.07-2.84-1.046c0.008-0.259,0.111-0.597,0.336-0.734
					c0.224-0.137,0.522-0.206,0.896-0.206h4.687v-1.806H39.55c-0.718,0-1.292,0.056-1.726,0.171
					c-0.687,0.185-1.224,0.532-1.613,1.034c-0.224,0.287-0.358,0.559-0.403,0.817s-0.069,0.515-0.068,0.773
					c0.021,2.925,2.734,2.81,4.725,2.848c1.154,0.022,2.066,0.003,2.066,0.904c0,0.415-0.217,0.681-0.65,0.796
					c-0.149,0.042-0.479,0.064-0.986,0.064h-5.066v1.807h5.179c0.628,0,1.144-0.058,1.546-0.172
					c0.628-0.186,1.127-0.531,1.502-1.033c0.164-0.229,0.287-0.487,0.369-0.774s0.124-0.587,0.124-0.903
					C44.546,27.92,42.457,27.913,40.597,27.973"/>
				<rect x="17.894" y="34.117" fill="#FFFFFF" width="26.485" height="1.702"/>
			</g>
		</g>
	</g>
</g>
</svg>
