<?xml version="1.0" encoding="utf-8"?>
<!-- Generator: Adobe Illustrator 16.0.3, SVG Export Plug-In . SVG Version: 6.00 Build 0)  -->
<!DOCTYPE svg PUBLIC "-//W3C//DTD SVG 1.1//EN" "http://www.w3.org/Graphics/SVG/1.1/DTD/svg11.dtd">
<svg version="1.1" id="Layer_1" xmlns="http://www.w3.org/2000/svg" xmlns:xlink="http://www.w3.org/1999/xlink" x="0px" y="0px"
	 width="40px" height="40px" viewBox="10 10 40 40" enable-background="new 10 10 40 40" xml:space="preserve">
<g>
	<rect x="10" y="10" fill="none" width="40" height="40"/>
	<g>
		<g>
			<path fill="#FFFFFF" d="M18.363,18.363v21.091c0,0.395-0.333,0.727-0.727,0.727c-0.395,0-0.728-0.332-0.728-0.727V20.545h-1.454
				v18.909c0,1.199,0.983,2.182,2.182,2.182h24.727c1.2,0,2.183-0.982,2.183-2.182V18.363H18.363z M43.091,39.454
				c0,0.396-0.332,0.729-0.728,0.729H19.819c0-0.287,0-20.364,0-20.364h23.274v19.635H43.091z"/>
			<rect x="22.366" y="27.231" fill="#FFFFFF" width="18.181" height="1.46"/>
			<rect x="31.82" y="30.153" fill="#FFFFFF" width="8.727" height="1.461"/>
			<rect x="22.366" y="30.152" fill="#FFFFFF" width="7.273" height="4.383"/>
			<rect x="31.82" y="33.073" fill="#FFFFFF" width="8.727" height="1.461"/>
			<rect x="22.366" y="35.995" fill="#FFFFFF" width="18.181" height="1.461"/>
			<path fill="#FFFFFF" d="M23.792,24.488c0,0.174-0.063,0.312-0.188,0.411c-0.125,0.101-0.299,0.15-0.522,0.15
				c-0.206,0-0.388-0.039-0.545-0.116v-0.38c0.13,0.058,0.241,0.1,0.331,0.123c0.089,0.023,0.171,0.036,0.247,0.036
				c0.09,0,0.159-0.017,0.207-0.052c0.048-0.034,0.07-0.085,0.07-0.153c0-0.038-0.01-0.071-0.031-0.101
				c-0.021-0.029-0.052-0.058-0.093-0.085c-0.041-0.027-0.124-0.071-0.25-0.13c-0.118-0.055-0.207-0.109-0.265-0.16
				c-0.059-0.052-0.105-0.11-0.141-0.179c-0.035-0.067-0.053-0.146-0.053-0.237c0-0.17,0.057-0.304,0.173-0.401
				c0.116-0.098,0.276-0.147,0.479-0.147c0.1,0,0.196,0.012,0.288,0.036c0.09,0.024,0.186,0.058,0.285,0.101l-0.131,0.318
				c-0.103-0.042-0.188-0.072-0.255-0.089c-0.068-0.017-0.134-0.025-0.199-0.025c-0.077,0-0.137,0.019-0.179,0.054
				c-0.041,0.037-0.061,0.084-0.061,0.141c0,0.037,0.007,0.068,0.025,0.095c0.016,0.027,0.042,0.053,0.079,0.078
				c0.036,0.025,0.124,0.07,0.26,0.136c0.181,0.086,0.304,0.172,0.37,0.258C23.759,24.256,23.792,24.362,23.792,24.488"/>
			<path fill="#FFFFFF" d="M25.046,25.023l-0.077-0.2h-0.011c-0.068,0.084-0.137,0.144-0.209,0.177
				c-0.07,0.033-0.165,0.049-0.28,0.049c-0.141,0-0.253-0.041-0.334-0.121c-0.081-0.082-0.122-0.197-0.122-0.347
				c0-0.156,0.055-0.272,0.165-0.347c0.109-0.074,0.275-0.115,0.495-0.123l0.256-0.008V24.04c0-0.149-0.077-0.224-0.229-0.224
				c-0.119,0-0.257,0.035-0.417,0.106l-0.132-0.271c0.169-0.089,0.356-0.133,0.563-0.133c0.199,0,0.349,0.042,0.455,0.129
				c0.105,0.086,0.159,0.217,0.159,0.393v0.982h-0.281V25.023z M25.252,22.941c-0.01,0.136-0.064,0.243-0.161,0.324
				c-0.097,0.082-0.218,0.122-0.363,0.122c-0.153,0-0.274-0.04-0.365-0.12c-0.091-0.08-0.141-0.188-0.147-0.325h0.224
				c0.003,0.042,0.016,0.074,0.036,0.097c0.021,0.024,0.05,0.042,0.087,0.052c0.037,0.011,0.093,0.017,0.169,0.017
				c0.181,0,0.278-0.055,0.292-0.166H25.252z M24.928,24.34l-0.155,0.005c-0.118,0.004-0.204,0.025-0.262,0.064
				c-0.057,0.038-0.085,0.098-0.085,0.177c0,0.113,0.063,0.17,0.194,0.17c0.094,0,0.169-0.027,0.224-0.081
				c0.055-0.053,0.083-0.125,0.083-0.213V24.34z"/>
			<path fill="#FFFFFF" d="M27.102,25.023h-0.403v-0.861c0-0.106-0.019-0.186-0.056-0.24c-0.038-0.052-0.099-0.08-0.181-0.08
				c-0.112,0-0.193,0.038-0.243,0.112c-0.05,0.076-0.075,0.201-0.075,0.374v0.694h-0.403v-1.474h0.308l0.054,0.188h0.022
				c0.045-0.071,0.107-0.125,0.186-0.162c0.079-0.036,0.168-0.054,0.268-0.054c0.172,0,0.301,0.046,0.39,0.139
				c0.088,0.093,0.134,0.227,0.134,0.401V25.023z"/>
			<path fill="#FFFFFF" d="M28.452,25.023l-0.078-0.2h-0.011c-0.068,0.084-0.137,0.144-0.209,0.177
				c-0.071,0.033-0.165,0.049-0.28,0.049c-0.141,0-0.253-0.041-0.334-0.121c-0.081-0.082-0.122-0.197-0.122-0.347
				c0-0.156,0.055-0.272,0.164-0.347c0.109-0.074,0.275-0.115,0.495-0.123l0.256-0.008V24.04c0-0.149-0.076-0.224-0.229-0.224
				c-0.119,0-0.257,0.035-0.417,0.106l-0.132-0.271c0.169-0.089,0.357-0.133,0.564-0.133c0.198,0,0.349,0.042,0.455,0.129
				c0.105,0.086,0.159,0.217,0.159,0.393v0.982h-0.281V25.023z M28.657,22.941c-0.01,0.136-0.064,0.243-0.161,0.324
				c-0.097,0.082-0.219,0.122-0.363,0.122c-0.153,0-0.274-0.04-0.365-0.12c-0.091-0.08-0.141-0.188-0.147-0.325h0.224
				c0.003,0.042,0.016,0.074,0.036,0.097c0.021,0.024,0.049,0.042,0.087,0.052c0.037,0.011,0.093,0.017,0.169,0.017
				c0.181,0,0.278-0.055,0.292-0.166H28.657z M28.333,24.34l-0.155,0.005c-0.118,0.004-0.204,0.025-0.262,0.064
				c-0.057,0.038-0.085,0.098-0.085,0.177c0,0.113,0.063,0.17,0.194,0.17c0.094,0,0.169-0.027,0.224-0.081
				c0.056-0.053,0.083-0.125,0.083-0.213L28.333,24.34L28.333,24.34z"/>
			<path fill="#FFFFFF" d="M29.767,24.729c0.071,0,0.155-0.015,0.254-0.046v0.299c-0.101,0.045-0.224,0.067-0.37,0.067
				c-0.161,0-0.278-0.04-0.352-0.122c-0.073-0.081-0.11-0.203-0.11-0.365v-0.711h-0.193v-0.169l0.222-0.135l0.115-0.311h0.257v0.313
				h0.413v0.302h-0.413v0.711c0,0.057,0.016,0.099,0.048,0.126C29.672,24.715,29.715,24.729,29.767,24.729"/>
			<path fill="#FFFFFF" d="M31.255,25.023l-0.076-0.2h-0.012c-0.068,0.084-0.137,0.144-0.209,0.177
				c-0.07,0.033-0.165,0.049-0.279,0.049c-0.143,0-0.253-0.041-0.335-0.121c-0.081-0.082-0.121-0.197-0.121-0.347
				c0-0.156,0.055-0.272,0.164-0.347c0.109-0.074,0.274-0.115,0.495-0.123l0.256-0.008V24.04c0-0.149-0.076-0.224-0.23-0.224
				c-0.118,0-0.256,0.035-0.415,0.106l-0.132-0.271c0.169-0.089,0.357-0.133,0.565-0.133c0.197,0,0.349,0.042,0.454,0.129
				s0.159,0.217,0.159,0.393v0.982h-0.283V25.023z M31.137,24.34l-0.155,0.005c-0.117,0.004-0.204,0.025-0.262,0.064
				c-0.057,0.038-0.084,0.098-0.084,0.177c0,0.113,0.063,0.17,0.194,0.17c0.095,0,0.169-0.027,0.224-0.081
				c0.057-0.053,0.084-0.125,0.084-0.213L31.137,24.34L31.137,24.34z"/>
			<path fill="#FFFFFF" d="M32.57,24.729c0.07,0,0.154-0.015,0.254-0.046v0.299c-0.101,0.045-0.224,0.067-0.37,0.067
				c-0.16,0-0.277-0.04-0.352-0.122c-0.072-0.081-0.109-0.203-0.109-0.365v-0.711h-0.192v-0.169l0.222-0.135l0.115-0.311h0.258
				v0.313h0.413v0.302h-0.413v0.711c0,0.057,0.016,0.099,0.049,0.126C32.476,24.715,32.519,24.729,32.57,24.729"/>
			<path fill="#FFFFFF" d="M33.79,25.05c-0.236,0-0.423-0.065-0.557-0.197c-0.133-0.131-0.199-0.317-0.199-0.557
				c0-0.246,0.061-0.438,0.185-0.572c0.124-0.135,0.293-0.203,0.512-0.203c0.209,0,0.371,0.06,0.487,0.178
				c0.115,0.119,0.173,0.283,0.173,0.492v0.195h-0.95c0.005,0.114,0.038,0.204,0.102,0.267c0.063,0.064,0.152,0.096,0.266,0.096
				c0.09,0,0.174-0.009,0.252-0.028c0.079-0.019,0.162-0.048,0.248-0.088v0.311c-0.07,0.036-0.146,0.062-0.227,0.079
				C34.003,25.042,33.905,25.05,33.79,25.05 M33.734,23.807c-0.086,0-0.153,0.027-0.201,0.081c-0.049,0.055-0.076,0.131-0.084,0.23
				h0.565c-0.003-0.1-0.027-0.176-0.078-0.23C33.887,23.834,33.819,23.807,33.734,23.807"/>
			<rect x="35.451" y="23.095" fill="#FFFFFF" width="0.408" height="1.928"/>
			<path fill="#FFFFFF" d="M37.675,25.023h-0.402v-0.861c0-0.106-0.02-0.186-0.058-0.24c-0.038-0.052-0.098-0.08-0.181-0.08
				c-0.112,0-0.193,0.038-0.244,0.112c-0.049,0.076-0.074,0.201-0.074,0.374v0.694h-0.402v-1.474h0.308l0.054,0.188h0.021
				c0.046-0.071,0.107-0.125,0.186-0.162c0.079-0.036,0.169-0.054,0.27-0.054c0.17,0,0.3,0.046,0.389,0.139
				c0.089,0.093,0.135,0.227,0.135,0.401V25.023L37.675,25.023z"/>
			<path fill="#FFFFFF" d="M38.902,23.851h-0.347v1.172h-0.403v-1.172h-0.222v-0.194l0.222-0.109v-0.107
				c0-0.168,0.042-0.292,0.125-0.368c0.083-0.078,0.215-0.117,0.397-0.117c0.139,0,0.263,0.02,0.369,0.062l-0.102,0.295
				c-0.082-0.025-0.156-0.039-0.224-0.039c-0.058,0-0.099,0.017-0.125,0.05c-0.024,0.035-0.038,0.078-0.038,0.131v0.092h0.347
				V23.851z"/>
			<path fill="#FFFFFF" d="M40.473,24.283c0,0.24-0.063,0.428-0.188,0.563c-0.127,0.135-0.304,0.203-0.53,0.203
				c-0.141,0-0.266-0.03-0.375-0.092c-0.106-0.063-0.19-0.151-0.247-0.267c-0.059-0.117-0.088-0.252-0.088-0.407
				c0-0.24,0.063-0.427,0.188-0.561c0.126-0.134,0.303-0.201,0.531-0.201c0.141,0,0.266,0.031,0.374,0.093
				c0.108,0.062,0.191,0.15,0.249,0.265C40.444,23.994,40.473,24.128,40.473,24.283 M39.454,24.283c0,0.147,0.023,0.257,0.072,0.332
				c0.048,0.075,0.125,0.112,0.234,0.112c0.106,0,0.184-0.037,0.23-0.111c0.048-0.074,0.07-0.185,0.07-0.332
				c0-0.146-0.022-0.255-0.07-0.328c-0.047-0.073-0.126-0.11-0.233-0.11c-0.106,0-0.185,0.037-0.232,0.109
				S39.454,24.137,39.454,24.283"/>
		</g>
	</g>
</g>
</svg>
