<?xml version="1.0" encoding="utf-8"?>
<!-- Generator: Adobe Illustrator 16.0.3, SVG Export Plug-In . SVG Version: 6.00 Build 0)  -->
<!DOCTYPE svg PUBLIC "-//W3C//DTD SVG 1.1//EN" "http://www.w3.org/Graphics/SVG/1.1/DTD/svg11.dtd">
<svg version="1.1" id="Layer_1" xmlns="http://www.w3.org/2000/svg" xmlns:xlink="http://www.w3.org/1999/xlink" x="0px" y="0px"
	 width="40px" height="40px" viewBox="10 10 40 40" enable-background="new 10 10 40 40" xml:space="preserve">
<g>
	<rect x="10" y="10" fill="none" width="40" height="40"/>
	<g>
		<g>
			<path fill="#FFFFFF" d="M20.347,17.273v2.68h-1.984v0.669h1.984v1.758h-1.984v0.67h1.984v1.758h-1.984v0.67h1.984v1.758h-1.984
				v0.67h1.984v1.759h-1.984v0.67h1.984v1.758h-1.984v0.671h1.984v1.758h-1.984v0.669h1.984v1.761h-1.984v0.669h1.984v1.758h-1.984
				v0.671h1.984v2.68h19.835V17.273H20.347z M22.995,40.048h-0.661V19.951h0.661V40.048z M26.298,21.878h7.936v5.358h-7.936V21.878z
				 M38.199,38.262h-2.422v2.458h-2.422v-2.458h-2.429v-2.455h2.429v-2.454h2.422v2.454h2.422V38.262z"/>
		</g>
	</g>
</g>
</svg>
