<?xml version="1.0" encoding="utf-8"?>
<!-- Generator: Adobe Illustrator 16.0.3, SVG Export Plug-In . SVG Version: 6.00 Build 0)  -->
<!DOCTYPE svg PUBLIC "-//W3C//DTD SVG 1.1//EN" "http://www.w3.org/Graphics/SVG/1.1/DTD/svg11.dtd">
<svg version="1.1" id="Layer_1" xmlns="http://www.w3.org/2000/svg" xmlns:xlink="http://www.w3.org/1999/xlink" x="0px" y="0px"
	 width="40px" height="40px" viewBox="10 10 40 40" enable-background="new 10 10 40 40" xml:space="preserve">
<g>
	<rect x="10" y="10" fill="none" width="40" height="40"/>
	<g>
		<g>
			<g>
				<g>
					<path fill="#FFFFFF" d="M42.552,28.231l-0.277,0.092v1.683l-0.695,4.63c0,0,0.546,0.905,1.668,0.399
						c-0.695-5.03-0.695-5.03-0.695-5.03V28.231z"/>
					<path fill="#FFFFFF" d="M30.113,25.801c-0.137-0.018-0.233-0.144-0.215-0.28c0.017-0.136,0.137-0.235,0.28-0.215l12.298,1.615
						l4.104-1.368l-16.666-5.556l-16.667,5.556l9.167,3.055l7.5,2.501l7.5-2.501l3.979-1.326L30.113,25.801z"/>
					<path fill="#FFFFFF" d="M30.089,32.384l-0.176,0.059l-0.176-0.059l-8.158-2.718v1.35l12.998,4.677
						c0.066,0.023,0.131,0.055,0.192,0.092c0.48,0.209,0.896,0.514,1.249,0.875c1.283-0.463,2.106-1.071,2.207-1.744h0.021v-5.249
						L30.089,32.384z"/>
				</g>
				<g>
					<polygon fill="#FFFFFF" points="21.724,38.915 23.879,39.687 21.093,41.047 21.554,39.909 18.938,40.276 					"/>
					<polygon fill="#FFFFFF" points="24.504,39.98 25.368,40.27 26.22,41.637 24.67,40.941 23.922,41.398 23.42,40.503 					"/>
					<path fill="#FFFFFF" d="M23.377,34.733c-0.18-0.049-0.354-0.07-0.519-0.07c-0.853,0-1.481,0.609-1.481,1.535
						c0,1.104,0.896,2.24,2,2.537c0.179,0.048,0.353,0.07,0.518,0.07c0.853,0,1.482-0.609,1.482-1.536
						C25.377,36.165,24.481,35.028,23.377,34.733z"/>
					<g>
						<path fill="#FFFFFF" d="M21.279,37.825c-0.246-0.392-0.409-0.824-0.468-1.271l-3.53-1.298
							c-0.208-0.077-0.314-0.307-0.237-0.514c0.075-0.209,0.306-0.313,0.513-0.238l3.273,1.205c0.199-0.979,0.989-1.647,2.029-1.648
							c0.214,0,0.433,0.031,0.653,0.088c0.445-0.322,0.983-0.527,1.571-0.552l-5.589-2.048c-0.361-0.191-0.771-0.301-1.207-0.301
							c-1.442,0-2.611,1.188-2.611,2.653c0,1.165,0.74,2.152,1.767,2.509l-0.002,0.004L21.279,37.825z"/>
					</g>
					<g>
						<path fill="#FFFFFF" d="M34.222,36.945l-6.72-2.462c-0.845,0.052-1.58,0.467-2.075,1.083c0.34,0.514,0.551,1.104,0.551,1.703
							c0,0.112-0.015,0.216-0.029,0.321l4.728,1.738c-0.001-0.021-0.006-0.04-0.006-0.061c0-1.27,1.013-2.299,2.26-2.299
							c0.352,0,0.682,0.084,0.979,0.229c-0.146-0.031-0.303,0.008-0.459,0.019c-1.078,0.071-2.044,1.012-2.044,2.279
							c0,0.912,0.314,1.65,1.071,2.021c-0.699-0.145-1.273-0.623-1.575-1.258c-0.007-0.004-0.014-0.002-0.021-0.005l-5.175-1.903
							c-0.111,0.207-0.254,0.387-0.425,0.539c0.147,0.19,0.31,0.371,0.468,0.531l6.917,2.498v-0.003
							c0,0.098,0.436,0.153,0.742,0.153c1.441,0,2.547-1.188,2.547-2.653C35.956,38.292,35.198,37.329,34.222,36.945z"/>
					</g>
				</g>
			</g>
		</g>
	</g>
</g>
</svg>
