<?xml version="1.0" encoding="utf-8"?>
<!-- Generator: Adobe Illustrator 16.0.3, SVG Export Plug-In . SVG Version: 6.00 Build 0)  -->
<!DOCTYPE svg PUBLIC "-//W3C//DTD SVG 1.1//EN" "http://www.w3.org/Graphics/SVG/1.1/DTD/svg11.dtd">
<svg version="1.1" id="Layer_1" xmlns="http://www.w3.org/2000/svg" xmlns:xlink="http://www.w3.org/1999/xlink" x="0px" y="0px"
	 width="40px" height="40px" viewBox="0 0 40 40" enable-background="new 0 0 40 40" xml:space="preserve">
<g>
	<g>
		<polygon fill="#28B4B4" points="0,0 0,40 40,40 40,0 0,0 		"/>
	</g>
	<g>
		<g>
			<polygon fill="#E72120" points="18.906,11.227 18.906,10.041 17.719,10.041 17.719,7.852 18.906,7.852 18.906,6.664 
				21.094,6.664 21.094,7.852 22.281,7.852 22.281,10.041 21.094,10.041 21.094,11.227 			"/>
			<path fill="#FFFFFF" d="M20.594,7.164v1.188h1.188v1.188h-1.188v1.187h-1.188V9.541h-1.188V8.352h1.188V7.164H20.594
				 M21.594,6.164h-1h-1.188h-1v1v0.188h-0.188h-1v1v1.188v1h1h0.188v0.187v1h1h1.188h1v-1v-0.187h0.188h1v-1V8.352v-1h-1h-0.188
				V7.164V6.164L21.594,6.164z"/>
		</g>
		<path fill="#FFFFFF" d="M25.803,12.467V5.455H14.197v7.012H25.803z M24.862,6.481v4.929h-9.726V6.481H24.862z"/>
		<rect x="23.331" y="31.465" fill="#FFFFFF" width="5.074" height="1.291"/>
		<path fill="#FFFFFF" d="M24.527,13.17c0.18,0.629,0.284,1.305,0.284,2.01c0,3.301-2.158,5.986-4.812,5.986
			s-4.813-2.685-4.813-5.986c0-0.705,0.105-1.38,0.286-2.01h-1.095c-0.158,0.638-0.246,1.311-0.246,2.01
			c0,3.89,2.627,7.042,5.868,7.042s5.868-3.153,5.868-7.042c0-0.699-0.088-1.372-0.246-2.01H24.527z"/>
		<path fill="#FFFFFF" d="M31.97,28.443c-0.101-1.087-0.126-2.548-1.689-3.856c-1.337-1.117-5.841-2.088-6.955-2.314
			c-0.977,0.685-2.112,1.079-3.325,1.079s-2.348-0.395-3.325-1.079c-1.114,0.227-5.618,1.197-6.955,2.314
			c-1.564,1.309-1.589,2.77-1.69,3.856c-0.142,1.519-0.352,6.103-0.352,6.103H20l0,0h12.322
			C32.322,34.546,32.112,29.962,31.97,28.443z M8.786,33.489c0.071-1.449,0.2-3.928,0.295-4.948l0.02-0.225
			c0.083-0.973,0.172-1.978,1.297-2.919c0.598-0.5,2.255-1.053,3.924-1.494c-0.552,0.531-0.893,0.973-0.893,0.973l2.109,1.792
			l-1.303,1.51c0,0,0.003,0.001,4.808,5.312H8.786z M20,33.489h-0.551c-1.291-2.801-2.238-6.902-2.449-9.821
			c0.019-0.005,1.584,0.703,3,0.703c1.533,0,3.006-0.739,3.014-0.853c-0.211,2.918-1.172,7.17-2.463,9.971H20z M20.956,33.489
			c4.807-5.311,4.809-5.312,4.809-5.312l-1.303-1.51l2.11-1.792c0,0-0.341-0.441-0.894-0.973c1.669,0.441,3.326,0.994,3.925,1.494
			c1.125,0.941,1.213,1.946,1.297,2.919l0.02,0.225c0.096,1.021,0.225,3.499,0.296,4.948H20.956z"/>
	</g>
</g>
<g>
</g>
<g>
</g>
<g>
</g>
<g>
</g>
<g>
</g>
<g>
</g>
</svg>
