<?xml version="1.0" encoding="utf-8"?>
<!-- Generator: Adobe Illustrator 16.0.3, SVG Export Plug-In . SVG Version: 6.00 Build 0)  -->
<!DOCTYPE svg PUBLIC "-//W3C//DTD SVG 1.1//EN" "http://www.w3.org/Graphics/SVG/1.1/DTD/svg11.dtd">
<svg version="1.1" id="Layer_1" xmlns="http://www.w3.org/2000/svg" xmlns:xlink="http://www.w3.org/1999/xlink" x="0px" y="0px"
	 width="16px" height="18px" viewBox="1016 1015 16 18" enable-background="new 1016 1015 16 18" xml:space="preserve">
<g transform="scale(1 -1) translate(0 -1280)">
	<path fill="#FFFFFF" d="M1032,250.035c0-0.938-0.276-1.678-0.83-2.221c-0.553-0.543-1.287-0.814-2.204-0.814h-9.932
		c-0.917,0-1.652,0.271-2.205,0.814s-0.83,1.283-0.83,2.221c0,0.414,0.013,0.818,0.04,1.213c0.026,0.395,0.08,0.82,0.159,1.277
		c0.079,0.457,0.18,0.881,0.301,1.271s0.284,0.771,0.488,1.143c0.205,0.371,0.439,0.688,0.705,0.949s0.589,0.471,0.972,0.627
		c0.382,0.156,0.805,0.234,1.267,0.234c0.068,0,0.227-0.084,0.477-0.252s0.532-0.355,0.846-0.563
		c0.314-0.207,0.724-0.395,1.228-0.563c0.504-0.168,1.01-0.252,1.517-0.252c0.508,0,1.013,0.084,1.518,0.252
		c0.504,0.168,0.912,0.355,1.227,0.563s0.597,0.395,0.847,0.563s0.409,0.252,0.478,0.252c0.462,0,0.884-0.078,1.268-0.234
		c0.382-0.156,0.705-0.365,0.971-0.627c0.265-0.262,0.5-0.578,0.704-0.949c0.205-0.371,0.368-0.752,0.489-1.143
		s0.222-0.814,0.302-1.271c0.079-0.457,0.132-0.883,0.159-1.277C1031.987,250.854,1032,250.449,1032,250.035z M1028.364,260.5
		c0-1.242-0.427-2.303-1.278-3.182c-0.854-0.879-1.881-1.318-3.086-1.318c-1.205,0-2.233,0.439-3.085,1.318
		c-0.853,0.879-1.278,1.939-1.278,3.182s0.426,2.303,1.278,3.182c0.852,0.879,1.88,1.318,3.085,1.318
		c1.205,0,2.232-0.439,3.086-1.318C1027.938,262.803,1028.364,261.742,1028.364,260.5z"/>
</g>
</svg>
